<svg xmlns="http://www.w3.org/2000/svg" viewBox="0 0 439.66 127.15"><g style="isolation:isolate"><g id="Calque_2" data-name="Calque 2"><path d="M97.35,36.41H110.4q12.22,0,19.13,7.24a23.84,23.84,0,0,1,6.9,17,25.22,25.22,0,0,1-7,18.11q-7,7.32-19.12,7.31-1.42,0-5.85-.18t-7-.19l-11,.45a1.9,1.9,0,0,1-.3-1.28c0-1,.1-1.5.3-1.5a11.94,11.94,0,0,0,2.81-.52c1.27-.35,2-.73,2.14-1.13a31.19,31.19,0,0,0,.45-6.6V46.76a26.19,26.19,0,0,0-.45-5.85q-.23-.6-2.22-1.35a9.47,9.47,0,0,0-2.81-.75q-.3,0-.3-1.35A2.51,2.51,0,0,1,86.33,36Q92.33,36.42,97.35,36.41Zm5,10.13v29.1c0,3.25.22,5,.67,5.25q1.65,1,8.48,1a10.94,10.94,0,0,0,9.75-5.4q3.45-5.4,3.45-16.12a25.58,25.58,0,0,0-3.64-14A11.34,11.34,0,0,0,111,40.61h-.37q-6.37,0-7.28,1.2C102.7,42.71,102.38,44.29,102.38,46.54Z" style="fill:#1a213d"/><path d="M151.66,36.41q3.3,0,11.62-.19t12.6-.18q.08.75,2.18,11.1a2.66,2.66,0,0,1-1.73.37c-.55,0-.9-.17-1.05-.52a12.64,12.64,0,0,0-4.5-4.88,10.9,10.9,0,0,0-6-2h-2.85c-3.15,0-4.77.32-4.87,1a31.93,31.93,0,0,0-.38,5.85V58.46c0,.3,1.08.45,3.23.45h4q4.65,0,5.1-.3c.25-.2.45-.92.6-2.17a15.31,15.31,0,0,1,.45-2.18c.05-.35.43-.52,1.13-.52a2.48,2.48,0,0,1,1.65.37V68.29a2.57,2.57,0,0,1-1.58.3q-1,0-1.2-.6c-.2-.7-.37-1.3-.52-1.8s-.28-.88-.38-1.13a3.82,3.82,0,0,0-.34-.67,2.44,2.44,0,0,0-.26-.38,1.15,1.15,0,0,0-.3-.18,1.43,1.43,0,0,1-.3-.19q-1-.6-5.85-.6-5.4,0-5.4.67V75.26a17.45,17.45,0,0,0,.6,5.33q.38,1.2,5.1,1.2h2a17.93,17.93,0,0,0,8.4-2,10.94,10.94,0,0,0,2.89-2.55,14.42,14.42,0,0,0,2.51-4.2q.08-.45,1.05-.45a3.56,3.56,0,0,1,2.25.45q-3.68,10.35-4.05,12.9-3.82,0-12.15-.15t-13.5-.15l-10.95.45a1.9,1.9,0,0,1-.3-1.28c0-1,.1-1.5.3-1.5a11.85,11.85,0,0,0,2.81-.52c1.28-.35,2-.73,2.14-1.13a31.19,31.19,0,0,0,.45-6.6V46.76a26.19,26.19,0,0,0-.45-5.85c-.15-.4-.89-.85-2.21-1.35a9.62,9.62,0,0,0-2.81-.75c-.21,0-.3-.45-.3-1.35s.07-1.27.22-1.42Q146.63,36.42,151.66,36.41Z" style="fill:#1a213d"/><path d="M195.46,36.79q.53,0,11.32-.6a2.44,2.44,0,0,1,.3,1.53c0,.83-.1,1.24-.3,1.24a9.38,9.38,0,0,0-3.11.68c-1.23.45-1.84,1.12-1.84,2a26.8,26.8,0,0,0,1.73,5l10.05,24.75,10.57-24.67a14.13,14.13,0,0,0,1.5-5.1c0-.75-.51-1.38-1.53-1.88a8.62,8.62,0,0,0-3.79-.75c-.15-.05-.23-.45-.23-1.2a5.6,5.6,0,0,1,.15-1.57l3.87.33q2.81.27,4.68.27c1.25,0,2.78-.09,4.58-.27s3.17-.28,4.13-.33a1.63,1.63,0,0,1,.3,1.12c0,1-.06,1.58-.15,1.58a9.08,9.08,0,0,0-2.63.63,10.16,10.16,0,0,0-2.93,1.54q-.6.52-2.85,5.48l-16.2,37.27a5.64,5.64,0,0,1-1.53,2,2.85,2.85,0,0,1-1.69.75,2,2,0,0,1-1.73-1l-15.37-38q-2.25-5.62-2.48-6.15a3.48,3.48,0,0,0-2.43-1.84,11.17,11.17,0,0,0-3-.64c-.2,0-.3-.42-.3-1.27a4,4,0,0,1,.15-1.5c.25,0,1.78.1,4.61.3S194.16,36.79,195.46,36.79Z" style="fill:#1a213d"/><path d="M251.19,36.41q4.88,0,12.6-.19T275.41,36q.07.75,2.18,11.1a2.66,2.66,0,0,1-1.73.37c-.55,0-.9-.17-1.05-.52a12.64,12.64,0,0,0-4.5-4.88,10.9,10.9,0,0,0-6-2h-2.85c-3.15,0-4.77.32-4.87,1a31.93,31.93,0,0,0-.38,5.85V58.46c0,.3,1.08.45,3.23.45h4q4.65,0,5.1-.3c.25-.2.45-.92.6-2.17a15.31,15.31,0,0,1,.45-2.18c.05-.35.43-.52,1.13-.52a2.48,2.48,0,0,1,1.65.37V68.29a2.57,2.57,0,0,1-1.58.3q-1,0-1.2-.6c-.2-.7-.37-1.3-.52-1.8s-.28-.88-.38-1.13a3.82,3.82,0,0,0-.34-.67,2.44,2.44,0,0,0-.26-.38,1.15,1.15,0,0,0-.3-.18,1.43,1.43,0,0,1-.3-.19q-1-.6-5.85-.6-5.4,0-5.4.67V75.26a28.91,28.91,0,0,0,.53,6.15c.15.6,1,1.08,2.47,1.43a16.35,16.35,0,0,0,3.38.52c.2,0,.3.48.3,1.43a4.55,4.55,0,0,1-.15,1.35q-9-.45-11.48-.45l-10.95.45a1.9,1.9,0,0,1-.3-1.28c0-1,.1-1.5.3-1.5a11.85,11.85,0,0,0,2.81-.52c1.28-.35,2-.73,2.14-1.13a31.19,31.19,0,0,0,.45-6.6V46.76a26.19,26.19,0,0,0-.45-5.85c-.15-.4-.89-.85-2.21-1.35a9.54,9.54,0,0,0-2.81-.75c-.21,0-.3-.45-.3-1.35s.07-1.27.22-1.42Q246.91,36.42,251.19,36.41Z" style="fill:#1a213d"/><path d="M292.66,36.41q3.3,0,11.63-.19t12.6-.18q.08.75,2.17,11.1a2.62,2.62,0,0,1-1.72.37c-.55,0-.9-.17-1-.52a12.64,12.64,0,0,0-4.5-4.88,10.9,10.9,0,0,0-6-2h-2.85c-3.15,0-4.78.32-4.88,1a32.15,32.15,0,0,0-.37,5.85V58.46c0,.3,1.07.45,3.22.45h4q4.65,0,5.1-.3c.25-.2.45-.92.6-2.17a15.31,15.31,0,0,1,.45-2.18c0-.35.42-.52,1.12-.52a2.48,2.48,0,0,1,1.65.37V68.29a2.53,2.53,0,0,1-1.57.3q-1,0-1.2-.6c-.2-.7-.38-1.3-.53-1.8s-.27-.88-.37-1.13a3.82,3.82,0,0,0-.34-.67,2.44,2.44,0,0,0-.26-.38,1.15,1.15,0,0,0-.3-.18,1.43,1.43,0,0,1-.3-.19q-1-.6-5.85-.6-5.4,0-5.4.67V75.26a17.45,17.45,0,0,0,.6,5.33q.38,1.2,5.1,1.2h1.95a17.93,17.93,0,0,0,8.4-2,10.94,10.94,0,0,0,2.89-2.55,14.42,14.42,0,0,0,2.51-4.2q.08-.45,1.05-.45a3.56,3.56,0,0,1,2.25.45q-3.68,10.35-4.05,12.9-3.83,0-12.15-.15t-13.5-.15l-10.95.45a1.9,1.9,0,0,1-.3-1.28c0-1,.1-1.5.3-1.5a11.94,11.94,0,0,0,2.81-.52c1.27-.35,2-.73,2.14-1.13a31.19,31.19,0,0,0,.45-6.6V46.76a26.19,26.19,0,0,0-.45-5.85q-.23-.6-2.22-1.35a9.47,9.47,0,0,0-2.81-.75q-.3,0-.3-1.35a2.51,2.51,0,0,1,.23-1.42Q287.64,36.42,292.66,36.41Z" style="fill:#1a213d"/><path d="M326.64,49.16q0-5.62,5-9.6a17.19,17.19,0,0,1,11-4,24.83,24.83,0,0,1,3.27.22q1.68.22,2.85.45c.77.15,1.85.39,3.22.71s2.46.57,3.27.72A112.84,112.84,0,0,1,356,50.14a1.11,1.11,0,0,1-1.12.75c-1.46,0-2.23-.18-2.33-.53a14.88,14.88,0,0,0-3.22-7.16,8.22,8.22,0,0,0-6.68-3.41,6.22,6.22,0,0,0-4.31,1.57q-1.77,1.57-1.77,5a6.19,6.19,0,0,0,.75,2.92,10.31,10.31,0,0,0,2.52,2.93,32.33,32.33,0,0,0,2.88,2.25q1.13.75,3.68,2.4c.45.3.8.52,1.05.67s1.22.75,2.48,1.5,2.13,1.32,2.66,1.69a26.36,26.36,0,0,1,2.17,1.84,9.4,9.4,0,0,1,2,2.51A16.6,16.6,0,0,1,358,68.33a17.07,17.07,0,0,1,.53,4.38,12.18,12.18,0,0,1-4.95,9.94,17.8,17.8,0,0,1-11.41,3.94,64,64,0,0,1-14.25-2,65.15,65.15,0,0,1-1.16-6.56,52.15,52.15,0,0,1-.56-5.89q.22-.75,1.35-.75,2.32,0,2.4.45a14.2,14.2,0,0,0,3.75,6.94,9.28,9.28,0,0,0,7,3.48q7.43,0,7.43-8.17a5.28,5.28,0,0,0-.67-2.51,9.23,9.23,0,0,0-2-2.44,29.68,29.68,0,0,0-2.4-2c-.7-.5-1.69-1.15-3-1.95s-2.09-1.33-2.44-1.58-.63-.4-1.13-.75q-2.47-1.65-3.75-2.62a29.34,29.34,0,0,1-3-2.7,10.22,10.22,0,0,1-2.4-3.79A14.44,14.44,0,0,1,326.64,49.16Z" style="fill:#1a213d"/><path d="M377.15,36.34q5.07.22,8.22.22t8.25-.22q5.1-.23,8.25-.23a22.74,22.74,0,0,0,5.17-.82l1.43,12.3a3.21,3.21,0,0,1-2.18.52c-.45,0-.7-.12-.75-.37q-1.87-7.43-8-7.43t-6.38,1.35a26.68,26.68,0,0,0-.6,6.68V75.41a25,25,0,0,0,.6,6.08c.1.35.79.75,2.06,1.2a9.83,9.83,0,0,0,2.59.67c.2,0,.3.48.3,1.43a4.55,4.55,0,0,1-.15,1.35q-.53,0-4.5-.3t-5.92-.3q-2,0-5.93.26l-4.95.34a1.74,1.74,0,0,1-.3-1.2c0-1,.08-1.58.23-1.58a10.59,10.59,0,0,0,2.77-.63c1.3-.43,2-.84,2.18-1.24a24.37,24.37,0,0,0,.52-5.78V48.56q0-5.85-.6-6.9A2.84,2.84,0,0,0,379,41a5,5,0,0,0-1.61-.45,25,25,0,0,0-4.13-.26,7.37,7.37,0,0,0-5,1.69,11,11,0,0,0-3,5.66c0,.25-.3.38-.75.38a3.2,3.2,0,0,1-2.18-.53l1.43-12.22a22.74,22.74,0,0,0,5.17.82Q372.09,36.11,377.15,36.34Z" style="fill:#1a213d"/><path d="M72,57.26,54.38,25.91a3.36,3.36,0,0,0-2.9-1.7l-10.13,0-7.43,0a3.33,3.33,0,0,0-2.89,5L47.55,57.9a3.3,3.3,0,0,1,0,3.34l-2.11,3.62L30.79,90a3.33,3.33,0,0,0,2.88,5H41.4l10.2,0a3.34,3.34,0,0,0,2.89-1.66l6.84-11.73h0l6.29-10.77L72,63.39A6.15,6.15,0,0,0,72,57.26Z" style="fill:#edc04e"/><polygon points="28.24 24.3 41.63 24.61 67.37 70.59 61.14 81.38 28.24 24.3" style="fill:#3577bc"/><polygon points="28.03 94.67 48.48 60 55.23 71.63 41.42 95.29 28.03 94.67" style="fill:#9ab964"/><polygon points="41.42 95.29 55.23 71.21 61.14 81.38 53.36 94.88 41.42 95.29" style="fill:#fcefb2"/><path d="M41.63,24.61H51.3a3.55,3.55,0,0,1,3.08,1.78l17.05,30a8,8,0,0,1-.19,8.24l-3.87,6Z" style="fill:#e9764f"/><polygon points="45.95 64.1 48.52 59.58 61.33 81.65 45.95 64.1" style="fill:#6f2b5a;opacity:0.30000000000000004;mix-blend-mode:multiply"/><path d="M42.29,24.74l9.76,0a1.86,1.86,0,0,1,1.58.93l17.9,31.84a5.64,5.64,0,0,1,0,5.58l-3.9,6.67-25.34-45m-.94-.55L67.62,70.88,72,63.39a6.15,6.15,0,0,0,0-6.13L53.93,25.11a1.75,1.75,0,0,0-1.53-.89l-11,0Z" style="fill:#1a213d"/><path d="M29.09,24.7l11.94,0L67,70.87l-5.66,9.69-5.64-9.72L49,59.3,29.09,24.7m-.95-.55L48.52,59.58l6.7,11.54,6.11,10.53,6.29-10.77L41.35,24.19l-13.21,0Z" style="fill:#1a213d"/><path d="M55.22,72.21l5.48,9.44L53.2,94.49l-10.86,0L54.23,73.92l1-1.71m0-1.09-1.47,2.52L41.4,95l12.12,0,7.81-13.39L55.22,71.12Z" style="fill:#1a213d"/><path d="M26.3,29.81,45,62.26l3.56-2.68L28.15,24.15l-.82.62A3.88,3.88,0,0,0,26.3,29.81Z" style="fill:#1a213d"/><path d="M41.4,95H27.87L45.43,64.86l3.09-5.28L45,62.26l-3.08,5.29L25.81,95.14a1.69,1.69,0,0,0,1.46,2.55H37.84l10.34,0a5.25,5.25,0,0,0,3.21-1.07L53.52,95Z" style="fill:#1a213d"/><path d="M48.52,60.67l6.06,10.45-1.3,2.25L41.08,94.46H28.83L45.91,65.14l2.61-4.47m0-1.09-3.09,5.28L27.87,95H41.4L53.75,73.64l1.47-2.52-6.7-11.54Z" style="fill:#1a213d"/><path d="M72,57.26,53.93,25.12a1.75,1.75,0,0,0-1.53-.9l-11,0-13.21,0L48.52,59.58l-3.09,5.28L27.87,95H41.4l12.12,0,7.81-13.39h0l6.29-10.77L72,63.39A6.15,6.15,0,0,0,72,57.26Zm-.48,5.88-4.38,7.48L60.86,81.39,53.58,93.86a1.28,1.28,0,0,1-1.1.63l-11.07,0H30.18a.77.77,0,0,1-.67-1.15L45.92,65.16,49,59.88l.16-.27L49,59.33,29.57,25.57a.51.51,0,0,1,.4-.8l11.39,0,10.61,0a2,2,0,0,1,1.71,1L71.53,57.56A5.64,5.64,0,0,1,71.53,63.14Z" style="fill:#1a213d"/><path d="M263.89,116.87c-.18,0-.43-.19-.76-.57l-10-12.42v9.4a5.15,5.15,0,0,0,.19,1.75,1.22,1.22,0,0,0,.59.47,3.92,3.92,0,0,0,.91.31,3.45,3.45,0,0,0,.71.1s.06.07.08.21,0,.28,0,.43a.5.5,0,0,1,0,.29,16.32,16.32,0,0,1-2-.1,12.63,12.63,0,0,0-1.31-.09c-.39,0-.71,0-.94,0l-.77.07c-.28,0-.73.07-1.34.1,0,0-.07-.19-.07-.44s0-.47.07-.47a3.26,3.26,0,0,0,1.19-.23,1.63,1.63,0,0,0,.9-.7,4.08,4.08,0,0,0,.25-1.79v-9.65a3,3,0,0,0-.37-1.74c0-.08-.2-.15-.46-.21s-.52-.11-.81-.15a5.08,5.08,0,0,0-.67-.06s-.06-.07-.09-.2a2,2,0,0,1,0-.43.57.57,0,0,1,.06-.28l1.57.1c.38,0,.72.06,1,.07l.77,0c.28,0,.62,0,1,0s.87-.08,1.39-.15a14.67,14.67,0,0,0,1.36,2.16c.58.79,1.24,1.62,2,2.49l2.25,2.72c.78.93,1.52,1.86,2.23,2.8,0-.07,0-.18,0-.35s0-.38,0-.66v-5.77a3,3,0,0,0-.32-1.77,1.25,1.25,0,0,0-.53-.35,4.56,4.56,0,0,0-.79-.26,2.6,2.6,0,0,0-.6-.1s-.06-.07-.08-.2a1.91,1.91,0,0,1,0-.43c0-.15,0-.25,0-.28.75.07,1.4.12,1.94.15s1,0,1.3,0,.63,0,1.05,0l1.22-.1.77-.05a.84.84,0,0,1,.1.44c0,.31,0,.47-.12.47a2.56,2.56,0,0,0-2,.81,3.11,3.11,0,0,0-.34,1.79v9.33c0,.3,0,.73,0,1.3s0,1.29.08,2.14A1.19,1.19,0,0,1,263.89,116.87Z" style="fill:#3577bc"/><path d="M266.44,116.84a.55.55,0,0,1-.09-.37c0-.34,0-.51,0-.51a2.18,2.18,0,0,0,.58-.12,7.44,7.44,0,0,0,.78-.31,1.1,1.1,0,0,0,.48-.36,5.58,5.58,0,0,0,.41-.72,5.38,5.38,0,0,0,.32-.7l.13-.3L274.52,101a1,1,0,0,1,.91-.64.69.69,0,0,1,.59.32l5,12.45.43,1.07c.14.33.27.65.38.94a.92.92,0,0,0,.44.43,3.07,3.07,0,0,0,.75.29,3.12,3.12,0,0,0,.63.09c.07,0,.1.14.1.42a1.48,1.48,0,0,1,0,.49l-1.5-.1-1.23-.08a4.69,4.69,0,0,0-.83,0l-3.71.19a.83.83,0,0,1-.1-.51c0-.26,0-.4.1-.4a2.83,2.83,0,0,0,1.11-.23c.37-.15.56-.36.56-.63,0,0,0-.16-.13-.44s-.25-.68-.48-1.2l-.74-1.79a.24.24,0,0,0-.17-.1,7.88,7.88,0,0,0-.84,0h-2.95q-.63,0-1.05,0a.21.21,0,0,0-.17.12l-.81,1.87a6.41,6.41,0,0,0-.48,1.42.64.64,0,0,0,.43.69,2.49,2.49,0,0,0,.77.26l.58,0c.05,0,.08.15.08.4a2.3,2.3,0,0,1-.05.51l-1.61-.12-.75-.06a3.17,3.17,0,0,0-.53,0l-.89.06Zm7.81-6.8h.92l.83,0,.07-.12-1.77-4.4-1.91,4.4c0,.07,0,.1,0,.1C272.93,110,273.53,110,274.25,110Z" style="fill:#3577bc"/><path d="M299.17,116.87c-.18,0-.43-.19-.76-.57l-10-12.42v9.4a5.15,5.15,0,0,0,.19,1.75,1.22,1.22,0,0,0,.59.47,3.92,3.92,0,0,0,.91.31,3.45,3.45,0,0,0,.71.1s.06.07.08.21,0,.28,0,.43a.5.5,0,0,1-.05.29,16.32,16.32,0,0,1-2-.1,12.63,12.63,0,0,0-1.31-.09c-.39,0-.71,0-.93,0l-.78.07c-.28,0-.73.07-1.34.1a.85.85,0,0,1-.07-.44c0-.31,0-.47.07-.47a3.35,3.35,0,0,0,1.2-.23,1.64,1.64,0,0,0,.89-.7,4.08,4.08,0,0,0,.25-1.79v-9.65a3,3,0,0,0-.37-1.74c-.05-.08-.2-.15-.46-.21s-.52-.11-.81-.15a5.08,5.08,0,0,0-.67-.06s-.06-.07-.09-.2a2,2,0,0,1,0-.43.57.57,0,0,1,.06-.28l1.57.1c.38,0,.72.06,1,.07l.77,0c.28,0,.62,0,1,0s.87-.08,1.39-.15a14.67,14.67,0,0,0,1.36,2.16c.58.79,1.24,1.62,2,2.49l2.25,2.72c.78.93,1.52,1.86,2.23,2.8,0-.07,0-.18,0-.35s0-.38,0-.66v-5.77a3,3,0,0,0-.32-1.77,1.25,1.25,0,0,0-.53-.35,4.56,4.56,0,0,0-.79-.26,2.6,2.6,0,0,0-.6-.1s-.06-.07-.08-.2a1.91,1.91,0,0,1,0-.43c0-.15,0-.25.05-.28.75.07,1.4.12,1.94.15s1,0,1.3,0,.63,0,1.05,0l1.22-.1.77-.05a.84.84,0,0,1,.1.44c0,.31,0,.47-.12.47a2.57,2.57,0,0,0-2,.81,3.11,3.11,0,0,0-.34,1.79v9.33c0,.3,0,.73,0,1.3s0,1.29.08,2.14A1.19,1.19,0,0,1,299.17,116.87Z" style="fill:#3577bc"/><path d="M307.45,116.84c-.07-.06-.1-.19-.1-.39s0-.52.07-.52a2.67,2.67,0,0,0,.57-.09,4.55,4.55,0,0,0,.68-.25c.22-.1.34-.19.37-.27a4.24,4.24,0,0,0,.14-.81q0-.47,0-1.08v-8.89a7.05,7.05,0,0,0-.19-2.26l-.13-.22a1.37,1.37,0,0,0-.63-.16,11.57,11.57,0,0,0-1.26-.06,2.44,2.44,0,0,0-1.64.55,3.62,3.62,0,0,0-1,1.86.25.25,0,0,1-.25.12,1.06,1.06,0,0,1-.71-.17l.47-4,.95.19a4.36,4.36,0,0,0,.74.08c.84,0,1.73,0,2.69.07s1.85.07,2.69.07,1.73,0,2.7-.07,1.86-.07,2.7-.07a4.15,4.15,0,0,0,.73-.08l1-.19.47,4a1,1,0,0,1-.71.17c-.13,0-.22,0-.25-.12-.41-1.62-1.28-2.43-2.63-2.43s-2,.15-2.08.44a4.41,4.41,0,0,0-.15.89c0,.36-.05.79-.05,1.3v8.86c0,.41,0,.78.05,1.11a5.36,5.36,0,0,0,.15.88c0,.07.15.15.35.25a5.84,5.84,0,0,0,.67.25,1.67,1.67,0,0,0,.5.11c.06,0,.1.16.1.47a2,2,0,0,1-.05.44l-.47,0-1-.08-1.13-.07c-.33,0-.6,0-.81,0s-.7,0-1.21,0l-1.43.08Z" style="fill:#3577bc"/><path d="M319.92,116.84c-.07-.06-.1-.2-.1-.41s0-.5.1-.5a2.89,2.89,0,0,0,.56-.07,3.48,3.48,0,0,0,.69-.21c.21-.09.34-.17.37-.26a10,10,0,0,0,.15-2.16V104a8.22,8.22,0,0,0-.15-1.91c0-.1-.16-.2-.38-.31a5.34,5.34,0,0,0-.7-.27,2.38,2.38,0,0,0-.57-.11c-.06,0-.09-.15-.09-.44a.86.86,0,0,1,.07-.47l1.88.09,1.73,0c.72,0,2,0,3.8-.07l2.41,0h1.72c0,.08.08.43.19,1s.29,1.48.52,2.61a.87.87,0,0,1-.56.12.35.35,0,0,1-.35-.17,3.28,3.28,0,0,0-.87-1.14,5.09,5.09,0,0,0-1.25-.82,3.24,3.24,0,0,0-1.32-.3h-.93c-1,0-1.58.1-1.59.32a5.65,5.65,0,0,0-.09.77c0,.32,0,.7,0,1.14v3.78c0,.1.35.15,1.06.15h1.3a6.08,6.08,0,0,0,1.67-.1,1.49,1.49,0,0,0,.2-.71,4.46,4.46,0,0,1,.14-.71c0-.12.14-.17.37-.17a.82.82,0,0,1,.54.12V111a.86.86,0,0,1-.51.1c-.22,0-.35-.07-.4-.2a11.74,11.74,0,0,0-.39-1.18c-.06-.11-.11-.17-.13-.16s-.08,0-.16-.08a5.28,5.28,0,0,0-1.92-.2c-1.18,0-1.77.07-1.77.22v3.78a5.94,5.94,0,0,0,.2,1.75c.06.26.62.39,1.67.39h.64a5.84,5.84,0,0,0,2.75-.64,3.68,3.68,0,0,0,.94-.83,4.83,4.83,0,0,0,.83-1.38c0-.1.14-.15.34-.15a1.17,1.17,0,0,1,.74.15,29.25,29.25,0,0,0-1.33,4.22h-1.61l-2.37,0c-.9,0-1.72,0-2.45-.06s-1.39,0-2,0Z" style="fill:#3577bc"/><path d="M339.68,117a15.09,15.09,0,0,1-2.13-.16c-.77-.11-1.62-.27-2.53-.48-.08-.36-.17-.81-.26-1.35s-.16-1.07-.22-1.58a11.15,11.15,0,0,1-.09-1.14c.05-.17.2-.25.44-.25.51,0,.77,0,.79.15a4.55,4.55,0,0,0,.66,1.53,5.07,5.07,0,0,0,1.27,1.34,2.65,2.65,0,0,0,1.58.54c1.62,0,2.43-.89,2.43-2.68a1.87,1.87,0,0,0-.55-1.3,6.65,6.65,0,0,0-1.28-1l-1.24-.81-.73-.49c-.56-.38-1.08-.77-1.57-1.17a5,5,0,0,1-1.2-1.4,3.91,3.91,0,0,1-.45-2,3.63,3.63,0,0,1,.76-2.26,5.46,5.46,0,0,1,2-1.6,5.62,5.62,0,0,1,2.5-.58,8,8,0,0,1,1.07.07l.94.15c.49.09.92.19,1.27.28a8.25,8.25,0,0,0,.84.18c.09.8.15,1.54.2,2.21s.07,1.29.07,1.87a.35.35,0,0,1-.36.24c-.49,0-.75,0-.77-.17a4.2,4.2,0,0,0-.54-1.62,4.31,4.31,0,0,0-1.12-1.31,2.55,2.55,0,0,0-1.58-.53,2.07,2.07,0,0,0-1.41.51,2.14,2.14,0,0,0-.57,1.65,2.26,2.26,0,0,0,.89,1.77,21.93,21.93,0,0,0,2.32,1.67l1.25.78a11.22,11.22,0,0,1,1.3.92,3.89,3.89,0,0,1,1,1.3,5.06,5.06,0,0,1,.39,2.18,3.85,3.85,0,0,1-.74,2.33,5.14,5.14,0,0,1-2,1.62A6,6,0,0,1,339.68,117Z" style="fill:#3577bc"/><path d="M351.69,116.74a1.42,1.42,0,0,1-.3-.81,34.92,34.92,0,0,0,2.25-2.72,33.14,33.14,0,0,0,1.9-2.81,17.39,17.39,0,0,0,1.32-2.62,6.1,6.1,0,0,0,.47-2.11,3.09,3.09,0,0,0-.56-1.85,1.78,1.78,0,0,0-1.52-.8,2.64,2.64,0,0,0-1.34.34,3.47,3.47,0,0,0-1.07,1.06l-.24.34a.84.84,0,0,1-.46-.18.53.53,0,0,1-.26-.43,5,5,0,0,1,.53-.9,10.9,10.9,0,0,1,.87-1,4.27,4.27,0,0,1,1.4-.9,4.79,4.79,0,0,1,1.84-.35,4.49,4.49,0,0,1,2.19.52,3.79,3.79,0,0,1,1.51,1.46,4.36,4.36,0,0,1,.55,2.25,5,5,0,0,1-.58,2.51,20.45,20.45,0,0,1-1.28,2,11.4,11.4,0,0,1-1.35,1.52l-.79.79-.55.53-.62.56-1,.9a.12.12,0,0,0,0,.13.12.12,0,0,0,.12.09h4.2A1.79,1.79,0,0,0,360,114a1.83,1.83,0,0,0,.58-.8,9.53,9.53,0,0,0,.34-1.1c0-.11.16-.17.42-.17a.88.88,0,0,1,.57.15c-.17.7-.33,1.42-.48,2.14s-.32,1.46-.48,2.23c0,.23-.13.34-.3.34Z" style="fill:#3577bc"/><path d="M368.87,116.82a4.25,4.25,0,0,1-2.16-.6,6.38,6.38,0,0,1-1.83-1.67,8.71,8.71,0,0,1-1.26-2.47,9.62,9.62,0,0,1,0-5.94,8.71,8.71,0,0,1,1.26-2.47,6.38,6.38,0,0,1,1.83-1.67,4.25,4.25,0,0,1,2.16-.6,4.11,4.11,0,0,1,2.12.6,6.25,6.25,0,0,1,1.79,1.67,8.88,8.88,0,0,1,1.24,2.46,10.06,10.06,0,0,1,0,6,8.94,8.94,0,0,1-1.24,2.47,6.25,6.25,0,0,1-1.79,1.67A4.11,4.11,0,0,1,368.87,116.82Zm0-1.28q1.08,0,1.62-1.77A18,18,0,0,0,371,109a15.57,15.57,0,0,0-.56-4.64c-.36-1.13-.88-1.69-1.57-1.69s-1.27.59-1.7,1.76a14.85,14.85,0,0,0-.61,4.69,12.93,12.93,0,0,0,.69,4.64C367.72,114.94,368.26,115.54,368.9,115.54Z" style="fill:#3577bc"/><path d="M376,116.74a1.42,1.42,0,0,1-.29-.81c.79-.86,1.53-1.77,2.25-2.72s1.34-1.89,1.9-2.81a17.27,17.27,0,0,0,1.31-2.62,5.92,5.92,0,0,0,.48-2.11,3.16,3.16,0,0,0-.56-1.85,1.79,1.79,0,0,0-1.53-.8,2.63,2.63,0,0,0-1.33.34,3.47,3.47,0,0,0-1.07,1.06l-.25.34a.82.82,0,0,1-.45-.18.53.53,0,0,1-.26-.43,5,5,0,0,1,.53-.9,10.9,10.9,0,0,1,.87-1,4.17,4.17,0,0,1,1.4-.9,4.79,4.79,0,0,1,1.84-.35,4.49,4.49,0,0,1,2.19.52,3.85,3.85,0,0,1,1.51,1.46,4.46,4.46,0,0,1,.55,2.25,5,5,0,0,1-.58,2.51,18.84,18.84,0,0,1-1.29,2,11.4,11.4,0,0,1-1.35,1.52l-.78.79c-.2.2-.38.37-.56.53l-.61.56-1,.9a.12.12,0,0,0,0,.13.1.1,0,0,0,.12.09h4.2a1.79,1.79,0,0,0,1.09-.29,1.91,1.91,0,0,0,.58-.8,9.53,9.53,0,0,0,.34-1.1c0-.11.16-.17.42-.17a.83.83,0,0,1,.56.15c-.16.7-.32,1.42-.48,2.14s-.31,1.46-.48,2.23c0,.23-.13.34-.29.34Z" style="fill:#3577bc"/><path d="M390.55,116.84a5.18,5.18,0,0,1-2.87-.83,2.2,2.2,0,0,1-.15-.71,2.13,2.13,0,0,1,.24-1,.81.81,0,0,1,.79-.46,1.81,1.81,0,0,1,1.38.89,2,2,0,0,0,1.72.86,2,2,0,0,0,1.77-.9,4.46,4.46,0,0,0,.61-2.54,3.7,3.7,0,0,0-.69-2.32,2.25,2.25,0,0,0-1.89-.9c-.18,0-.38,0-.61,0l-.74.09a1.22,1.22,0,0,1-.17-.74.94.94,0,0,1,.07-.37,3.64,3.64,0,0,0,2.2-1.09,3.15,3.15,0,0,0,.8-2.2,2,2,0,0,0-.46-1.47,1.42,1.42,0,0,0-1-.47,3,3,0,0,0-2.31,1,.52.52,0,0,1-.36-.24.71.71,0,0,1-.2-.42,5.16,5.16,0,0,1,1.86-1.51A5.67,5.67,0,0,1,393,101a3,3,0,0,1,1.34.32,2.73,2.73,0,0,1,1.08,1,2.64,2.64,0,0,1,.43,1.56,3.79,3.79,0,0,1-.32,1.51,5,5,0,0,1-.8,1.28,3.77,3.77,0,0,1-1,.86,2.53,2.53,0,0,1,1.1.31,5,5,0,0,1,1.16.85,4.61,4.61,0,0,1,.94,1.27,3.64,3.64,0,0,1,.36,1.6,4.37,4.37,0,0,1-.56,2.2,5.2,5.2,0,0,1-1.55,1.69,7.53,7.53,0,0,1-2.18,1.08A8.08,8.08,0,0,1,390.55,116.84Z" style="fill:#3577bc"/></g></g></svg>